<mxfile host="app.diagrams.net" modified="2022-02-05T05:48:01.787Z" agent="5.0 (Windows NT 10.0; Win64; x64) AppleWebKit/537.36 (KHTML, like Gecko) Chrome/98.0.4758.87 Safari/537.36" etag="9NR4oXkQR-3BXInipZ5q" version="16.5.3" type="github">
  <diagram id="v9L-3eFqOb6WBXbbULfU" name="Page-1">
    <mxGraphModel dx="947" dy="793" grid="1" gridSize="10" guides="1" tooltips="1" connect="1" arrows="1" fold="1" page="1" pageScale="1" pageWidth="827" pageHeight="1169" math="0" shadow="0">
      <root>
        <mxCell id="0" />
        <mxCell id="1" parent="0" />
        <mxCell id="07mGFDLiJ6GKSLS7nXAo-1" value="compran" style="rhombus;whiteSpace=wrap;html=1;" vertex="1" parent="1">
          <mxGeometry x="340" y="150" width="80" height="80" as="geometry" />
        </mxCell>
        <mxCell id="07mGFDLiJ6GKSLS7nXAo-19" style="edgeStyle=orthogonalEdgeStyle;rounded=0;orthogonalLoop=1;jettySize=auto;html=1;exitX=0;exitY=0;exitDx=0;exitDy=0;entryX=0.5;entryY=1;entryDx=0;entryDy=0;" edge="1" parent="1" source="07mGFDLiJ6GKSLS7nXAo-2" target="07mGFDLiJ6GKSLS7nXAo-17">
          <mxGeometry relative="1" as="geometry" />
        </mxCell>
        <mxCell id="07mGFDLiJ6GKSLS7nXAo-20" style="edgeStyle=orthogonalEdgeStyle;rounded=0;orthogonalLoop=1;jettySize=auto;html=1;exitX=0.5;exitY=0;exitDx=0;exitDy=0;entryX=0.328;entryY=1.067;entryDx=0;entryDy=0;entryPerimeter=0;" edge="1" parent="1" source="07mGFDLiJ6GKSLS7nXAo-2" target="07mGFDLiJ6GKSLS7nXAo-16">
          <mxGeometry relative="1" as="geometry" />
        </mxCell>
        <mxCell id="07mGFDLiJ6GKSLS7nXAo-21" style="edgeStyle=orthogonalEdgeStyle;rounded=0;orthogonalLoop=1;jettySize=auto;html=1;exitX=1;exitY=0;exitDx=0;exitDy=0;entryX=0.5;entryY=1;entryDx=0;entryDy=0;" edge="1" parent="1" source="07mGFDLiJ6GKSLS7nXAo-2" target="07mGFDLiJ6GKSLS7nXAo-15">
          <mxGeometry relative="1" as="geometry" />
        </mxCell>
        <mxCell id="07mGFDLiJ6GKSLS7nXAo-22" style="edgeStyle=orthogonalEdgeStyle;rounded=0;orthogonalLoop=1;jettySize=auto;html=1;exitX=0.5;exitY=1;exitDx=0;exitDy=0;entryX=0.5;entryY=0;entryDx=0;entryDy=0;" edge="1" parent="1" source="07mGFDLiJ6GKSLS7nXAo-2" target="07mGFDLiJ6GKSLS7nXAo-14">
          <mxGeometry relative="1" as="geometry" />
        </mxCell>
        <mxCell id="07mGFDLiJ6GKSLS7nXAo-23" style="edgeStyle=orthogonalEdgeStyle;rounded=0;orthogonalLoop=1;jettySize=auto;html=1;exitX=0;exitY=1;exitDx=0;exitDy=0;entryX=0.5;entryY=0;entryDx=0;entryDy=0;" edge="1" parent="1" source="07mGFDLiJ6GKSLS7nXAo-2" target="07mGFDLiJ6GKSLS7nXAo-13">
          <mxGeometry relative="1" as="geometry" />
        </mxCell>
        <mxCell id="07mGFDLiJ6GKSLS7nXAo-2" value="clientes" style="rounded=0;whiteSpace=wrap;html=1;" vertex="1" parent="1">
          <mxGeometry x="60" y="160" width="120" height="60" as="geometry" />
        </mxCell>
        <mxCell id="07mGFDLiJ6GKSLS7nXAo-25" style="edgeStyle=orthogonalEdgeStyle;rounded=0;orthogonalLoop=1;jettySize=auto;html=1;exitX=1;exitY=0;exitDx=0;exitDy=0;entryX=0.5;entryY=1;entryDx=0;entryDy=0;" edge="1" parent="1" source="07mGFDLiJ6GKSLS7nXAo-3" target="07mGFDLiJ6GKSLS7nXAo-11">
          <mxGeometry relative="1" as="geometry" />
        </mxCell>
        <mxCell id="07mGFDLiJ6GKSLS7nXAo-27" style="edgeStyle=orthogonalEdgeStyle;rounded=0;orthogonalLoop=1;jettySize=auto;html=1;exitX=0.5;exitY=0;exitDx=0;exitDy=0;entryX=0.5;entryY=1;entryDx=0;entryDy=0;" edge="1" parent="1" source="07mGFDLiJ6GKSLS7nXAo-3" target="07mGFDLiJ6GKSLS7nXAo-12">
          <mxGeometry relative="1" as="geometry" />
        </mxCell>
        <mxCell id="07mGFDLiJ6GKSLS7nXAo-28" style="edgeStyle=orthogonalEdgeStyle;rounded=0;orthogonalLoop=1;jettySize=auto;html=1;exitX=0.5;exitY=1;exitDx=0;exitDy=0;entryX=0.5;entryY=0;entryDx=0;entryDy=0;" edge="1" parent="1" source="07mGFDLiJ6GKSLS7nXAo-3" target="07mGFDLiJ6GKSLS7nXAo-24">
          <mxGeometry relative="1" as="geometry" />
        </mxCell>
        <mxCell id="07mGFDLiJ6GKSLS7nXAo-3" value="productos" style="rounded=0;whiteSpace=wrap;html=1;" vertex="1" parent="1">
          <mxGeometry x="580" y="160" width="120" height="60" as="geometry" />
        </mxCell>
        <mxCell id="07mGFDLiJ6GKSLS7nXAo-4" value="" style="endArrow=none;html=1;rounded=0;exitX=1;exitY=0.5;exitDx=0;exitDy=0;entryX=0;entryY=0.5;entryDx=0;entryDy=0;" edge="1" parent="1" source="07mGFDLiJ6GKSLS7nXAo-2" target="07mGFDLiJ6GKSLS7nXAo-1">
          <mxGeometry width="50" height="50" relative="1" as="geometry">
            <mxPoint x="380" y="220" as="sourcePoint" />
            <mxPoint x="430" y="170" as="targetPoint" />
          </mxGeometry>
        </mxCell>
        <mxCell id="07mGFDLiJ6GKSLS7nXAo-5" value="" style="endArrow=none;html=1;rounded=0;entryX=0;entryY=0.5;entryDx=0;entryDy=0;exitX=1;exitY=0.5;exitDx=0;exitDy=0;" edge="1" parent="1" source="07mGFDLiJ6GKSLS7nXAo-1" target="07mGFDLiJ6GKSLS7nXAo-3">
          <mxGeometry width="50" height="50" relative="1" as="geometry">
            <mxPoint x="380" y="220" as="sourcePoint" />
            <mxPoint x="430" y="170" as="targetPoint" />
          </mxGeometry>
        </mxCell>
        <mxCell id="07mGFDLiJ6GKSLS7nXAo-6" value="1" style="text;html=1;align=center;verticalAlign=middle;resizable=0;points=[];autosize=1;strokeColor=none;fillColor=none;" vertex="1" parent="1">
          <mxGeometry x="180" y="140" width="20" height="20" as="geometry" />
        </mxCell>
        <mxCell id="07mGFDLiJ6GKSLS7nXAo-7" value="n" style="text;html=1;align=center;verticalAlign=middle;resizable=0;points=[];autosize=1;strokeColor=none;fillColor=none;" vertex="1" parent="1">
          <mxGeometry x="560" y="140" width="20" height="20" as="geometry" />
        </mxCell>
        <mxCell id="07mGFDLiJ6GKSLS7nXAo-8" value="1" style="text;html=1;align=center;verticalAlign=middle;resizable=0;points=[];autosize=1;strokeColor=none;fillColor=none;" vertex="1" parent="1">
          <mxGeometry x="560" y="220" width="20" height="20" as="geometry" />
        </mxCell>
        <mxCell id="07mGFDLiJ6GKSLS7nXAo-9" value="n" style="text;html=1;align=center;verticalAlign=middle;resizable=0;points=[];autosize=1;strokeColor=none;fillColor=none;" vertex="1" parent="1">
          <mxGeometry x="180" y="220" width="20" height="20" as="geometry" />
        </mxCell>
        <mxCell id="07mGFDLiJ6GKSLS7nXAo-10" value="n:n" style="text;html=1;align=center;verticalAlign=middle;resizable=0;points=[];autosize=1;strokeColor=none;fillColor=none;" vertex="1" parent="1">
          <mxGeometry x="365" y="130" width="30" height="20" as="geometry" />
        </mxCell>
        <mxCell id="07mGFDLiJ6GKSLS7nXAo-11" value="codigo" style="ellipse;whiteSpace=wrap;html=1;" vertex="1" parent="1">
          <mxGeometry x="670" y="100" width="60" height="30" as="geometry" />
        </mxCell>
        <mxCell id="07mGFDLiJ6GKSLS7nXAo-12" value="nombre" style="ellipse;whiteSpace=wrap;html=1;" vertex="1" parent="1">
          <mxGeometry x="590" y="90" width="60" height="30" as="geometry" />
        </mxCell>
        <mxCell id="07mGFDLiJ6GKSLS7nXAo-13" value="direccion" style="ellipse;whiteSpace=wrap;html=1;" vertex="1" parent="1">
          <mxGeometry x="10" y="240" width="60" height="30" as="geometry" />
        </mxCell>
        <mxCell id="07mGFDLiJ6GKSLS7nXAo-14" value="fecha nacimeinto" style="ellipse;whiteSpace=wrap;html=1;" vertex="1" parent="1">
          <mxGeometry x="80" y="240" width="80" height="40" as="geometry" />
        </mxCell>
        <mxCell id="07mGFDLiJ6GKSLS7nXAo-15" value="ci" style="ellipse;whiteSpace=wrap;html=1;" vertex="1" parent="1">
          <mxGeometry x="190" y="100" width="60" height="30" as="geometry" />
        </mxCell>
        <mxCell id="07mGFDLiJ6GKSLS7nXAo-16" value="apellidos" style="ellipse;whiteSpace=wrap;html=1;" vertex="1" parent="1">
          <mxGeometry x="100" y="100" width="60" height="30" as="geometry" />
        </mxCell>
        <mxCell id="07mGFDLiJ6GKSLS7nXAo-17" value="nombre" style="ellipse;whiteSpace=wrap;html=1;" vertex="1" parent="1">
          <mxGeometry x="10" y="100" width="60" height="30" as="geometry" />
        </mxCell>
        <mxCell id="07mGFDLiJ6GKSLS7nXAo-24" value="precio" style="ellipse;whiteSpace=wrap;html=1;" vertex="1" parent="1">
          <mxGeometry x="610" y="245" width="60" height="30" as="geometry" />
        </mxCell>
        <mxCell id="07mGFDLiJ6GKSLS7nXAo-39" value="compran" style="rhombus;whiteSpace=wrap;html=1;" vertex="1" parent="1">
          <mxGeometry x="335" y="380" width="80" height="80" as="geometry" />
        </mxCell>
        <mxCell id="07mGFDLiJ6GKSLS7nXAo-40" style="edgeStyle=orthogonalEdgeStyle;rounded=0;orthogonalLoop=1;jettySize=auto;html=1;exitX=0;exitY=0;exitDx=0;exitDy=0;entryX=0.5;entryY=1;entryDx=0;entryDy=0;" edge="1" parent="1" source="07mGFDLiJ6GKSLS7nXAo-45">
          <mxGeometry relative="1" as="geometry">
            <mxPoint x="34.999999999999886" y="360" as="targetPoint" />
          </mxGeometry>
        </mxCell>
        <mxCell id="07mGFDLiJ6GKSLS7nXAo-41" style="edgeStyle=orthogonalEdgeStyle;rounded=0;orthogonalLoop=1;jettySize=auto;html=1;exitX=0.5;exitY=0;exitDx=0;exitDy=0;entryX=0.328;entryY=1.067;entryDx=0;entryDy=0;entryPerimeter=0;" edge="1" parent="1" source="07mGFDLiJ6GKSLS7nXAo-45" target="07mGFDLiJ6GKSLS7nXAo-61">
          <mxGeometry relative="1" as="geometry" />
        </mxCell>
        <mxCell id="07mGFDLiJ6GKSLS7nXAo-43" style="edgeStyle=orthogonalEdgeStyle;rounded=0;orthogonalLoop=1;jettySize=auto;html=1;exitX=0.5;exitY=1;exitDx=0;exitDy=0;entryX=0.5;entryY=0;entryDx=0;entryDy=0;" edge="1" parent="1" source="07mGFDLiJ6GKSLS7nXAo-45" target="07mGFDLiJ6GKSLS7nXAo-59">
          <mxGeometry relative="1" as="geometry" />
        </mxCell>
        <mxCell id="07mGFDLiJ6GKSLS7nXAo-44" style="edgeStyle=orthogonalEdgeStyle;rounded=0;orthogonalLoop=1;jettySize=auto;html=1;exitX=0;exitY=1;exitDx=0;exitDy=0;entryX=0.5;entryY=0;entryDx=0;entryDy=0;" edge="1" parent="1" source="07mGFDLiJ6GKSLS7nXAo-45">
          <mxGeometry relative="1" as="geometry">
            <mxPoint x="34.999999999999886" y="470" as="targetPoint" />
          </mxGeometry>
        </mxCell>
        <mxCell id="07mGFDLiJ6GKSLS7nXAo-45" value="proveedores" style="rounded=0;whiteSpace=wrap;html=1;" vertex="1" parent="1">
          <mxGeometry x="55" y="390" width="120" height="60" as="geometry" />
        </mxCell>
        <mxCell id="07mGFDLiJ6GKSLS7nXAo-46" style="edgeStyle=orthogonalEdgeStyle;rounded=0;orthogonalLoop=1;jettySize=auto;html=1;exitX=1;exitY=0;exitDx=0;exitDy=0;entryX=0.5;entryY=1;entryDx=0;entryDy=0;" edge="1" parent="1" source="07mGFDLiJ6GKSLS7nXAo-49" target="07mGFDLiJ6GKSLS7nXAo-57">
          <mxGeometry relative="1" as="geometry" />
        </mxCell>
        <mxCell id="07mGFDLiJ6GKSLS7nXAo-47" style="edgeStyle=orthogonalEdgeStyle;rounded=0;orthogonalLoop=1;jettySize=auto;html=1;exitX=0.5;exitY=0;exitDx=0;exitDy=0;entryX=0.5;entryY=1;entryDx=0;entryDy=0;" edge="1" parent="1" source="07mGFDLiJ6GKSLS7nXAo-49" target="07mGFDLiJ6GKSLS7nXAo-58">
          <mxGeometry relative="1" as="geometry" />
        </mxCell>
        <mxCell id="07mGFDLiJ6GKSLS7nXAo-48" style="edgeStyle=orthogonalEdgeStyle;rounded=0;orthogonalLoop=1;jettySize=auto;html=1;exitX=0.5;exitY=1;exitDx=0;exitDy=0;entryX=0.5;entryY=0;entryDx=0;entryDy=0;" edge="1" parent="1" source="07mGFDLiJ6GKSLS7nXAo-49" target="07mGFDLiJ6GKSLS7nXAo-62">
          <mxGeometry relative="1" as="geometry" />
        </mxCell>
        <mxCell id="07mGFDLiJ6GKSLS7nXAo-49" value="productos" style="rounded=0;whiteSpace=wrap;html=1;" vertex="1" parent="1">
          <mxGeometry x="575" y="390" width="120" height="60" as="geometry" />
        </mxCell>
        <mxCell id="07mGFDLiJ6GKSLS7nXAo-50" value="" style="endArrow=none;html=1;rounded=0;exitX=1;exitY=0.5;exitDx=0;exitDy=0;entryX=0;entryY=0.5;entryDx=0;entryDy=0;" edge="1" parent="1" source="07mGFDLiJ6GKSLS7nXAo-45" target="07mGFDLiJ6GKSLS7nXAo-39">
          <mxGeometry width="50" height="50" relative="1" as="geometry">
            <mxPoint x="375" y="450" as="sourcePoint" />
            <mxPoint x="425" y="400" as="targetPoint" />
          </mxGeometry>
        </mxCell>
        <mxCell id="07mGFDLiJ6GKSLS7nXAo-51" value="" style="endArrow=none;html=1;rounded=0;entryX=0;entryY=0.5;entryDx=0;entryDy=0;exitX=1;exitY=0.5;exitDx=0;exitDy=0;" edge="1" parent="1" source="07mGFDLiJ6GKSLS7nXAo-39" target="07mGFDLiJ6GKSLS7nXAo-49">
          <mxGeometry width="50" height="50" relative="1" as="geometry">
            <mxPoint x="375" y="450" as="sourcePoint" />
            <mxPoint x="425" y="400" as="targetPoint" />
          </mxGeometry>
        </mxCell>
        <mxCell id="07mGFDLiJ6GKSLS7nXAo-52" value="1" style="text;html=1;align=center;verticalAlign=middle;resizable=0;points=[];autosize=1;strokeColor=none;fillColor=none;" vertex="1" parent="1">
          <mxGeometry x="175" y="370" width="20" height="20" as="geometry" />
        </mxCell>
        <mxCell id="07mGFDLiJ6GKSLS7nXAo-53" value="n" style="text;html=1;align=center;verticalAlign=middle;resizable=0;points=[];autosize=1;strokeColor=none;fillColor=none;" vertex="1" parent="1">
          <mxGeometry x="555" y="370" width="20" height="20" as="geometry" />
        </mxCell>
        <mxCell id="07mGFDLiJ6GKSLS7nXAo-54" value="1" style="text;html=1;align=center;verticalAlign=middle;resizable=0;points=[];autosize=1;strokeColor=none;fillColor=none;" vertex="1" parent="1">
          <mxGeometry x="555" y="450" width="20" height="20" as="geometry" />
        </mxCell>
        <mxCell id="07mGFDLiJ6GKSLS7nXAo-55" value="n" style="text;html=1;align=center;verticalAlign=middle;resizable=0;points=[];autosize=1;strokeColor=none;fillColor=none;" vertex="1" parent="1">
          <mxGeometry x="175" y="450" width="20" height="20" as="geometry" />
        </mxCell>
        <mxCell id="07mGFDLiJ6GKSLS7nXAo-56" value="n:n" style="text;html=1;align=center;verticalAlign=middle;resizable=0;points=[];autosize=1;strokeColor=none;fillColor=none;" vertex="1" parent="1">
          <mxGeometry x="360" y="360" width="30" height="20" as="geometry" />
        </mxCell>
        <mxCell id="07mGFDLiJ6GKSLS7nXAo-57" value="codigo" style="ellipse;whiteSpace=wrap;html=1;" vertex="1" parent="1">
          <mxGeometry x="665" y="330" width="60" height="30" as="geometry" />
        </mxCell>
        <mxCell id="07mGFDLiJ6GKSLS7nXAo-58" value="nombre" style="ellipse;whiteSpace=wrap;html=1;" vertex="1" parent="1">
          <mxGeometry x="585" y="320" width="60" height="30" as="geometry" />
        </mxCell>
        <mxCell id="07mGFDLiJ6GKSLS7nXAo-59" value="fecha nacimeinto" style="ellipse;whiteSpace=wrap;html=1;" vertex="1" parent="1">
          <mxGeometry x="75" y="470" width="80" height="40" as="geometry" />
        </mxCell>
        <mxCell id="07mGFDLiJ6GKSLS7nXAo-61" value="apellidos" style="ellipse;whiteSpace=wrap;html=1;" vertex="1" parent="1">
          <mxGeometry x="95" y="330" width="60" height="30" as="geometry" />
        </mxCell>
        <mxCell id="07mGFDLiJ6GKSLS7nXAo-62" value="precio" style="ellipse;whiteSpace=wrap;html=1;" vertex="1" parent="1">
          <mxGeometry x="605" y="475" width="60" height="30" as="geometry" />
        </mxCell>
      </root>
    </mxGraphModel>
  </diagram>
</mxfile>
